<svg xmlns="http://www.w3.org/2000/svg" enable-background="new 0 0 512 512" viewBox="0 0 512 512" id="rocket-launch">
  <g>
    <g>
      <g>
        <path fill="#5596fb" d="M187.632 377.969l-1.563 1.563c-19.214 19.217-46.774 26.382-72.729 19.138-7.241-25.954-.078-53.515 19.14-72.731l1.561-1.562c2.929-2.93 2.927-7.679-.003-10.606-2.932-2.929-7.681-2.929-10.606.003l-1.559 1.56c-24.159 24.158-32.455 59.3-21.651 91.713.747 2.239 2.504 3.996 4.743 4.743 32.347 10.781 67.505 2.558 91.711-21.649l1.562-1.561c2.93-2.928 2.932-7.677.003-10.606C195.309 375.041 190.559 375.04 187.632 377.969zM414.906 155.95l-58.849-58.849c-10.3-10.298-27.057-10.3-37.356 0-10.299 10.3-10.299 27.057 0 37.356l58.849 58.849c10.298 10.296 27.056 10.3 37.356 0C425.205 183.007 425.205 166.25 414.906 155.95zM404.299 182.699c-4.449 4.45-11.692 4.452-16.142 0l-58.849-58.849c-4.451-4.45-4.451-11.691 0-16.142 4.448-4.45 11.692-4.451 16.142 0l58.849 58.849C408.75 171.008 408.75 178.249 404.299 182.699zM222.311 230.848c-10.301-10.299-27.059-10.3-37.357.001-10.298 10.299-10.298 27.057 0 37.356l58.849 58.849c.001 0 .001 0 .001 0 10.301 10.299 27.055 10.297 37.356 0 10.299-10.3 10.299-27.058 0-37.357L222.311 230.848zM270.554 316.447c-4.451 4.451-11.693 4.451-16.145 0h.001l-58.849-58.848c-4.45-4.451-4.45-11.693 0-16.144 4.449-4.451 11.693-4.451 16.143 0l58.849 58.849C275.004 304.754 275.004 311.996 270.554 316.447zM267.878 180.025c-17.712 17.714-17.719 46.388 0 64.104 17.712 17.714 46.387 17.719 64.104.001 17.715-17.713 17.718-46.387.001-64.105C314.268 162.311 285.596 162.307 267.878 180.025zM321.376 233.523c-11.852 11.852-31.037 11.856-42.892 0-11.852-11.85-11.854-31.036.001-42.891v-.001c11.85-11.852 31.036-11.854 42.891.001C333.228 202.484 333.232 221.67 321.376 233.523z"></path>
        <path fill="#283954" d="M505.176 12.39c-.656-2.753-2.806-4.902-5.56-5.558-74.221-17.67-149.889 5.741-201.049 56.912L286.87 75.439l-45.397-10.476c-15.122-3.494-30.706.978-41.683 11.953l-90.013 90.013c-14.537 14.539-7.422 39.351 12.612 43.974l23.57 5.439-6.485 6.486c-11.435 11.444-13.977 28.465-7.634 42.395l-11.491.884c-20.151 1.548-29.174 26.014-14.903 40.287l100.168 100.168c14.282 14.279 38.74 5.236 40.287-14.903l.884-11.491c14.117 6.428 31.089 3.663 42.398-7.637l6.481-6.481 5.438 23.567c4.628 20.028 29.436 27.158 43.981 12.615 11.271-11.271 76.711-76.711 90.012-90.013 10.967-10.979 15.435-26.561 11.952-41.688l-10.477-45.397 11.692-11.693C500.931 160.789 522.372 84.592 505.176 12.39zM491.608 20.402c8.393 39.298 4.787 81.01-11.033 118.703-52.44-13.829-93.652-54.934-107.594-107.392C410.058 16.224 451.581 11.877 491.608 20.402zM125.763 196.287c-8.541-1.971-11.578-12.553-5.378-18.751l90.013-90.013c7.295-7.295 17.651-10.262 27.702-7.945l36.261 8.368c-.219.219-115.784 115.78-115.893 115.888L125.763 196.287zM230.946 390.508c-.57 7.392-9.501 10.672-14.725 5.446L116.054 295.786c-5.232-5.23-1.937-14.155 5.446-14.725l21.177-1.629 89.898 89.898L230.946 390.508zM424.486 301.615c-19.761 19.761-72.646 72.646-90.01 90.01-6.203 6.203-16.784 3.163-18.759-5.383l-7.546-32.7 115.892-115.899 8.368 36.259C434.746 283.957 431.775 294.319 424.486 301.615zM278.579 361.922c-8.878 8.87-23.321 8.87-32.195.002-.553-.554-96.196-96.195-96.298-96.297-8.87-8.877-8.87-23.321-.002-32.195.126-.126 158.974-158.966 159.09-159.081 14.789-14.792 31.723-26.957 50.011-36.276 15.712 55.602 59.342 99.172 114.965 114.809-9.36 18.213-21.596 35.058-36.494 49.952L278.579 361.922zM83.351 428.656c-2.93-2.928-7.678-2.928-10.607 0l-48.148 48.148c-2.929 2.93-2.929 7.678 0 10.607 2.931 2.929 7.678 2.928 10.607 0l48.148-48.148C86.28 436.334 86.28 431.586 83.351 428.656zM136.85 439.356c-2.93-2.928-7.678-2.928-10.607 0l-48.148 48.149c-2.929 2.93-2.929 7.678 0 10.607 2.931 2.929 7.678 2.928 10.607 0l48.148-48.149C139.779 447.033 139.779 442.285 136.85 439.356zM179.742 450.056l-48.149 48.148c-2.929 2.93-2.929 7.678 0 10.607 2.931 2.929 7.678 2.928 10.607 0l48.149-48.148c2.929-2.93 2.929-7.678 0-10.607C187.42 447.128 182.672 447.128 179.742 450.056zM72.652 385.765c2.929-2.93 2.929-7.678 0-10.607-2.929-2.927-7.677-2.929-10.607 0l-48.149 48.148c-2.929 2.93-2.929 7.678 0 10.607 2.931 2.929 7.678 2.928 10.607 0L72.652 385.765zM61.952 332.266c2.929-2.93 2.929-7.678 0-10.607-2.93-2.928-7.678-2.928-10.607 0L3.196 369.808c-2.929 2.93-2.929 7.678 0 10.607 2.931 2.929 7.678 2.928 10.607 0L61.952 332.266z"></path>
      </g>
    </g>
  </g>
</svg>
