<svg xmlns="http://www.w3.org/2000/svg" viewBox="0 0 96 96" id="server">
  <path fill="#c7d8ff" d="M10.42,9H95a0,0,0,0,1,0,0V87a0,0,0,0,1,0,0H10.42A9.42,9.42,0,0,1,1,77.6V18.41A9.42,9.42,0,0,1,10.42,9Z" transform="rotate(90 48 48)"></path>
  <rect width="23" height="78.02" x="36.5" y="44.49" fill="#619fff" transform="rotate(90 48 83.5)"></rect>
  <path fill="#3b417e" d="M7.62,18.59H91.79a0,0,0,0,1,0,0V83.81a0,0,0,0,1,0,0H7.62A3.42,3.42,0,0,1,4.21,80.4V22A3.42,3.42,0,0,1,7.62,18.59Z" transform="rotate(90 48 51.2)"></path>
  <path fill="#dbecff" d="M15.39,20.3V10.83a3.42,3.42,0,0,1,3.42-3.42H77.19a3.42,3.42,0,0,1,3.42,3.42V20.3a3.2,3.2,0,0,0,6.4,0V10.43A9.42,9.42,0,0,0,77.59,1H18.41A9.42,9.42,0,0,0,9,10.43V20.3a3.2,3.2,0,0,0,6.4,0Z"></path>
  <rect width="17.52" height="65.22" x="39.24" y="-16.44" fill="#5955a1" rx="3.42" transform="rotate(90 48 16.17)"></rect>
  <rect width="11.1" height="43.72" x="42.45" y="-5.69" fill="#6d6ebf" rx="1.91" transform="rotate(90 48 16.17)"></rect>
  <rect width="6.85" height="21.68" x="28.14" y="5.33" fill="#619fff" rx="1.61" transform="rotate(90 31.56 16.17)"></rect>
  <rect width="17.52" height="65.22" x="39.24" y="1.07" fill="#7282bf" rx="3.42" transform="rotate(90 48 33.68)"></rect>
  <rect width="11.1" height="43.72" x="42.45" y="11.83" fill="#90afdd" rx="1.91" transform="rotate(90 48 33.68)"></rect>
  <rect width="6.85" height="21.68" x="61.01" y="22.85" fill="#619fff" rx="1.61" transform="rotate(90 64.435 33.685)"></rect>
  <rect width="17.52" height="65.22" x="39.24" y="18.59" fill="#5955a1" rx="3.42" transform="rotate(90 48 51.2)"></rect>
  <rect width="11.1" height="43.72" x="42.45" y="29.34" fill="#6d6ebf" rx="1.91" transform="rotate(90 48 51.2)"></rect>
  <rect width="11.1" height="8.76" x="45.58" y="46.82" fill="#8ba0d8" rx="1.91" transform="rotate(90 51.13 51.2)"></rect>
  <rect width="11.1" height="8.76" x="45.58" y="11.79" fill="#8ba0d8" rx="1.91" transform="rotate(90 51.13 16.17)"></rect>
  <rect width="11.1" height="8.76" x="41.2" y="29.3" fill="#b3e1fb" rx="1.91" transform="rotate(90 46.75 33.68)"></rect>
  <rect width="6.85" height="21.68" x="28.14" y="40.36" fill="#619fff" rx="1.61" transform="rotate(90 31.56 51.2)"></rect>
  <rect width="17.52" height="65.22" x="39.24" y="36.11" fill="#7282bf" rx="3.42" transform="rotate(90 48 68.72)"></rect>
  <rect width="11.1" height="43.72" x="42.45" y="46.86" fill="#90afdd" rx="1.91" transform="rotate(90 48 68.72)"></rect>
  <rect width="11.1" height="8.76" x="41.2" y="64.34" fill="#b3e1fb" rx="1.91" transform="rotate(90 46.75 68.72)"></rect>
  <rect width="6.85" height="21.68" x="61.01" y="57.88" fill="#619fff" rx="1.61" transform="rotate(90 64.44 68.72)"></rect>
  <rect width="17.52" height="65.22" x="39.24" y="53.62" fill="#5955a1" rx="3.42" transform="rotate(90 48 86.23)"></rect>
  <rect width="11.1" height="43.72" x="42.45" y="64.38" fill="#6d6ebf" rx="1.91" transform="rotate(90 48 86.23)"></rect>
  <rect width="11.1" height="8.76" x="45.58" y="81.85" fill="#8ba0d8" rx="1.91" transform="rotate(90 51.135 86.235)"></rect>
  <rect width="6.85" height="21.68" x="28.14" y="75.4" fill="#619fff" rx="1.61" transform="rotate(90 31.565 86.235)"></rect>
  <path fill="#7282bf" d="M27.83 82.81H22.34a1.61 1.61 0 00-1.62 1.61v3.63a1.61 1.61 0 001.62 1.61h5.49zM27.83 47.78H22.34a1.61 1.61 0 00-1.62 1.61V53a1.62 1.62 0 001.62 1.62h5.49zM27.83 12.74H22.34a1.61 1.61 0 00-1.62 1.62V18a1.61 1.61 0 001.62 1.61h5.49z"></path>
  <path fill="#5955a1" d="M68.17 37.11h5.49a1.61 1.61 0 001.62-1.61V31.87a1.61 1.61 0 00-1.62-1.61H68.17zM68.17 72.14h5.49a1.61 1.61 0 001.62-1.61V66.91a1.62 1.62 0 00-1.62-1.62H68.17z"></path>
  <path fill="#302d3d" d="M77.59,0H18.41A10.42,10.42,0,0,0,8,10.42V95a1,1,0,0,0,1,1H87a1,1,0,0,0,1-1V10.42A10.42,10.42,0,0,0,77.59,0ZM18.41,2H77.59A8.42,8.42,0,0,1,86,10.42V71h-4.4V10.82A4.43,4.43,0,0,0,77.19,6.4H18.81a4.49,4.49,0,0,0-4.42,4.42V71H10V10.42A8.42,8.42,0,0,1,18.41,2Zm61.2,78.88V91.57A2.42,2.42,0,0,1,77.19,94H18.81a2.42,2.42,0,0,1-2.42-2.41V80.89a2.42,2.42,0,0,1,2.42-2.42H77.19A2.42,2.42,0,0,1,79.61,80.89Zm0-6.84a2.42,2.42,0,0,1-2.42,2.42H18.81a2.42,2.42,0,0,1-2.42-2.42V63.38A2.42,2.42,0,0,1,18.81,61H77.19a2.42,2.42,0,0,1,2.42,2.43ZM16.39,45.85a2.42,2.42,0,0,1,2.42-2.41H77.19a2.41,2.41,0,0,1,2.42,2.41V56.54A2.42,2.42,0,0,1,77.19,59H18.81a2.42,2.42,0,0,1-2.42-2.41Zm60.8-19.93a2.42,2.42,0,0,1,2.42,2.41V39a2.42,2.42,0,0,1-2.42,2.41H18.81A2.42,2.42,0,0,1,16.39,39V28.33a2.42,2.42,0,0,1,2.42-2.41ZM18.2,8.49c.52-.13-3.55-.09,59-.09a2.43,2.43,0,0,1,2.42,2.42V21.51a2.42,2.42,0,0,1-2.42,2.41H18.81a2.42,2.42,0,0,1-2.42-2.41V10.82A2.44,2.44,0,0,1,18.2,8.49ZM10,73h4.4V94H10ZM86,94h-4.4V73H86Z"></path>
  <path fill="#302d3d" d="M55.21 38.1H73.66a2.62 2.62 0 002.62-2.62V31.87a2.62 2.62 0 00-2.62-2.62H55.21a2.62 2.62 0 00-2.61 2.62v3.62A2.61 2.61 0 0055.21 38.1zm18.45-6.85a.62.62 0 01.62.62v3.62a.61.61 0 01-.62.61H69.17V31.25zm-19.06.62a.62.62 0 01.61-.62h12V36.1h-12a.61.61 0 01-.61-.61zM22.34 90.65H40.79A2.61 2.61 0 0043.4 88V84.41a2.61 2.61 0 00-2.61-2.61H22.34a2.61 2.61 0 00-2.62 2.61V88A2.61 2.61 0 0022.34 90.65zM41.4 84.41V88a.61.61 0 01-.61.61h-12V83.8h12A.61.61 0 0141.4 84.41zm-19.68 0a.61.61 0 01.62-.61h4.49v4.85c-4.78 0-4.68.08-4.93-.18S21.72 88.32 21.72 84.41zM22.34 55.62H40.79A2.61 2.61 0 0043.4 53V49.38a2.61 2.61 0 00-2.61-2.61H22.34a2.61 2.61 0 00-2.62 2.61V53A2.61 2.61 0 0022.34 55.62zM41.4 49.38V53a.61.61 0 01-.61.61h-12V48.77h12A.62.62 0 0141.4 49.38zm-19.68 0a.62.62 0 01.62-.61h4.49v4.85H22.34a.61.61 0 01-.62-.61zM22.34 20.59H40.79A2.61 2.61 0 0043.4 18V14.35a2.61 2.61 0 00-2.61-2.61H22.34a2.61 2.61 0 00-2.62 2.61V18A2.62 2.62 0 0022.34 20.59zm4.49-2H22.34a.62.62 0 01-.62-.62V14.35a.61.61 0 01.62-.61h4.49zM41.4 14.35V18a.62.62 0 01-.61.62h-12V13.74h12A.61.61 0 0141.4 14.35zM73.66 64.28H55.21A2.62 2.62 0 0052.6 66.9v3.62A2.58 2.58 0 0054.37 73c.58.21-.25.15 13.8.15 6.07 0 5.79 0 6.33-.15a2.6 2.6 0 001.78-2.47V66.9A2.62 2.62 0 0073.66 64.28zM54.6 70.52V66.9a.63.63 0 01.61-.62h12V71H54.83A.58.58 0 0154.6 70.52zM69.17 71V66.28h4.49a.63.63 0 01.62.62c0 4 .08 3.84-.22 4.09zM21.2 64.29h-.48a1 1 0 000 2h.48a1 1 0 100-2zM26.38 64.29H25.9a1 1 0 100 2h.48a1 1 0 000-2zM31.56 64.29h-.48a1 1 0 000 2h.48a1 1 0 100-2zM21.2 67.71h-.48a1 1 0 000 2h.48a1 1 0 100-2zM26.38 67.71H25.9a1 1 0 100 2h.48a1 1 0 000-2zM31.56 67.71h-.48a1 1 0 000 2h.48a1 1 0 100-2zM21.2 71.14h-.48a1 1 0 00-1 1 1 1 0 001 1c.48 0 .71 0 1-.15A1 1 0 0021.2 71.14zM26.38 71.14H25.9a1 1 0 00-1 1 1 1 0 001 1c.48 0 .71 0 1-.15A1 1 0 0026.38 71.14zM31.56 71.14h-.48a1 1 0 00-1 1 1 1 0 001 1 1.71 1.71 0 001-.15A1 1 0 0031.56 71.14zM64.44 83.8h.48a1 1 0 000-2h-.48a1 1 0 000 2zM69.62 83.8h.48a1 1 0 000-2h-.48a1 1 0 000 2zM74.8 83.8h.48a1 1 0 000-2H74.8a1 1 0 000 2zM64.44 87.23h.48a1 1 0 000-2h-.48a1 1 0 000 2zM69.62 87.23h.48a1 1 0 000-2h-.48a1 1 0 000 2zM74.8 87.23h.48a1 1 0 000-2H74.8a1 1 0 000 2zM64.44 90.66h.48a1 1 0 000-2h-.48a1 1 0 000 2zM69.62 90.66h.48a1 1 0 000-2h-.48a1 1 0 000 2zM74.8 90.66h.48a1 1 0 000-2H74.8a1 1 0 100 2zM64.44 48.77h.48a1 1 0 000-2h-.48a1 1 0 000 2zM69.62 48.77h.48a1 1 0 000-2h-.48a1 1 0 000 2zM74.8 48.77h.48a1 1 0 000-2H74.8a1 1 0 000 2zM64.44 52.2h.48a1 1 0 000-2h-.48a1 1 0 000 2zM69.62 52.2h.48a1 1 0 000-2h-.48a1 1 0 000 2zM74.8 52.2h.48a1 1 0 000-2H74.8a1 1 0 000 2zM64.44 55.62h.48a1 1 0 000-2h-.48a1 1 0 000 2zM69.62 55.62h.48a1 1 0 000-2h-.48a1 1 0 000 2zM74.8 55.62h.48a1 1 0 000-2H74.8a1 1 0 000 2zM64.44 13.74h.48a1 1 0 000-2h-.48a1 1 0 000 2zM69.62 13.74h.48a1 1 0 000-2h-.48a1 1 0 000 2zM74.8 13.74h.48a1 1 0 000-2H74.8a1 1 0 000 2zM64.44 17.16h.48a1 1 0 000-2h-.48a1 1 0 000 2zM69.62 17.16h.48a1 1 0 000-2h-.48a1 1 0 000 2zM74.8 17.16h.48a1 1 0 000-2H74.8a1 1 0 000 2zM64.44 20.59h.48a1 1 0 000-2h-.48a1 1 0 000 2zM69.62 20.59h.48a1 1 0 000-2h-.48a1 1 0 000 2zM74.8 20.59h.48a1 1 0 000-2H74.8a1 1 0 000 2zM20.72 31.25h.48a1 1 0 100-2h-.48a1 1 0 000 2zM25.9 31.25h.48a1 1 0 000-2H25.9a1 1 0 000 2zM31.08 31.25h.48a1 1 0 100-2h-.48a1 1 0 000 2zM20.72 34.68h.48a1 1 0 000-2h-.48a1 1 0 000 2zM25.9 34.68h.48a1 1 0 100-2H25.9a1 1 0 000 2zM31.08 34.68h.48a1 1 0 100-2h-.48a1 1 0 100 2zM20.72 38.1h.48a1 1 0 000-2h-.48a1 1 0 000 2zM25.9 38.1h.48a1 1 0 100-2H25.9a1 1 0 000 2zM31.08 38.1h.48a1 1 0 100-2h-.48a1 1 0 000 2z"></path>
</svg>
